<svg xmlns="http://www.w3.org/2000/svg" viewBox="0 0 1600 900" preserveAspectRatio="xMinYMin slice"><defs><linearGradient id="sky" x1="0" y1="0" x2="0" y2="1"><stop offset="0" stop-color="#0e2036"/><stop offset="1" stop-color="#050a12"/></linearGradient><radialGradient id="planet" cx="0.62" cy="0.3" r="0.9"><stop offset="0" stop-color="#7e9ab5"/><stop offset="0.4" stop-color="#2c4562"/><stop offset="1" stop-color="#08121e"/></radialGradient><radialGradient id="halo" cx="0.5" cy="0.5" r="0.5"><stop offset="0.72" stop-color="#5aa9e6" stop-opacity="0.45"/><stop offset="1" stop-color="#5aa9e6" stop-opacity="0"/></radialGradient><linearGradient id="hull" x1="0" y1="0" x2="1" y2="1"><stop offset="0" stop-color="#5a6c80"/><stop offset="1" stop-color="#141d29"/></linearGradient></defs><rect width="1600" height="900" fill="url(#sky)"/><circle cx="0" cy="402" r="0.77" fill="#d6eaff" opacity="0.33"/><circle cx="1377" cy="368" r="1.02" fill="#d6eaff" opacity="0.60"/><circle cx="756" cy="253" r="0.66" fill="#d6eaff" opacity="0.76"/><circle cx="225" cy="342" r="1.11" fill="#d6eaff" opacity="0.84"/><circle cx="612" cy="76" r="0.66" fill="#d6eaff" opacity="0.78"/><circle cx="948" cy="499" r="0.97" fill="#d6eaff" opacity="0.45"/><circle cx="493" cy="717" r="0.41" fill="#d6eaff" opacity="0.43"/><circle cx="922" cy="642" r="0.42" fill="#d6eaff" opacity="0.55"/><circle cx="1419" cy="470" r="0.52" fill="#d6eaff" opacity="0.70"/><circle cx="1534" cy="288" r="1.48" fill="#d6eaff" opacity="0.31"/><circle cx="1148" cy="727" r="1.54" fill="#d6eaff" opacity="0.49"/><circle cx="267" cy="720" r="1.54" fill="#d6eaff" opacity="0.78"/><circle cx="1600" cy="720" r="0.92" fill="#d6eaff" opacity="0.47"/><circle cx="985" cy="22" r="1.54" fill="#d6eaff" opacity="0.84"/><circle cx="563" cy="787" r="0.40" fill="#d6eaff" opacity="0.73"/><circle cx="1522" cy="495" r="1.22" fill="#d6eaff" opacity="0.63"/><circle cx="1365" cy="390" r="1.51" fill="#d6eaff" opacity="0.95"/><circle cx="681" cy="730" r="1.01" fill="#d6eaff" opacity="0.45"/><circle cx="77" cy="47" r="1.39" fill="#d6eaff" opacity="0.37"/><circle cx="561" cy="496" r="0.85" fill="#d6eaff" opacity="0.61"/><circle cx="170" cy="341" r="0.61" fill="#d6eaff" opacity="0.67"/><circle cx="881" cy="832" r="0.52" fill="#d6eaff" opacity="0.94"/><circle cx="1590" cy="697" r="1.08" fill="#d6eaff" opacity="0.54"/><circle cx="1378" cy="581" r="1.00" fill="#d6eaff" opacity="0.50"/><circle cx="853" cy="231" r="1.55" fill="#d6eaff" opacity="0.67"/><circle cx="1457" cy="132" r="0.59" fill="#d6eaff" opacity="0.93"/><circle cx="1105" cy="259" r="1.39" fill="#d6eaff" opacity="0.54"/><circle cx="1406" cy="435" r="1.01" fill="#d6eaff" opacity="0.45"/><circle cx="161" cy="718" r="1.45" fill="#d6eaff" opacity="0.47"/><circle cx="1212" cy="306" r="1.43" fill="#d6eaff" opacity="0.58"/><circle cx="1" cy="18" r="0.44" fill="#d6eaff" opacity="0.66"/><circle cx="473" cy="727" r="0.78" fill="#d6eaff" opacity="0.72"/><circle cx="1584" cy="444" r="1.31" fill="#d6eaff" opacity="0.41"/><circle cx="1046" cy="445" r="0.69" fill="#d6eaff" opacity="0.47"/><circle cx="795" cy="561" r="0.95" fill="#d6eaff" opacity="0.50"/><circle cx="786" cy="459" r="0.54" fill="#d6eaff" opacity="0.71"/><circle cx="1306" cy="447" r="1.07" fill="#d6eaff" opacity="0.44"/><circle cx="1237" cy="336" r="0.53" fill="#d6eaff" opacity="0.67"/><circle cx="618" cy="178" r="1.01" fill="#d6eaff" opacity="0.90"/><circle cx="630" cy="147" r="1.41" fill="#d6eaff" opacity="0.84"/><circle cx="1162" cy="217" r="0.74" fill="#d6eaff" opacity="0.45"/><circle cx="499" cy="827" r="1.23" fill="#d6eaff" opacity="0.67"/><circle cx="676" cy="462" r="0.93" fill="#d6eaff" opacity="0.78"/><circle cx="22" cy="706" r="1.34" fill="#d6eaff" opacity="0.31"/><circle cx="1254" cy="438" r="1.14" fill="#d6eaff" opacity="0.31"/><circle cx="1352" cy="878" r="1.48" fill="#d6eaff" opacity="0.46"/><circle cx="269" cy="331" r="0.97" fill="#d6eaff" opacity="0.95"/><circle cx="1202" cy="423" r="0.62" fill="#d6eaff" opacity="0.67"/><circle cx="967" cy="894" r="0.78" fill="#d6eaff" opacity="0.36"/><circle cx="744" cy="864" r="1.40" fill="#d6eaff" opacity="0.35"/><circle cx="926" cy="652" r="1.43" fill="#d6eaff" opacity="0.62"/><circle cx="582" cy="164" r="1.49" fill="#d6eaff" opacity="0.73"/><circle cx="220" cy="499" r="0.81" fill="#d6eaff" opacity="0.72"/><circle cx="1345" cy="25" r="1.07" fill="#d6eaff" opacity="0.87"/><circle cx="1293" cy="695" r="0.59" fill="#d6eaff" opacity="0.44"/><circle cx="1194" cy="697" r="0.52" fill="#d6eaff" opacity="0.77"/><circle cx="1356" cy="341" r="0.81" fill="#d6eaff" opacity="0.63"/><circle cx="312" cy="75" r="1.03" fill="#d6eaff" opacity="0.81"/><circle cx="1573" cy="478" r="1.54" fill="#d6eaff" opacity="0.87"/><circle cx="593" cy="816" r="0.97" fill="#d6eaff" opacity="0.73"/><circle cx="1114" cy="753" r="0.57" fill="#d6eaff" opacity="0.87"/><circle cx="27" cy="294" r="1.59" fill="#d6eaff" opacity="0.75"/><circle cx="1497" cy="702" r="0.41" fill="#d6eaff" opacity="0.31"/><circle cx="811" cy="1" r="1.01" fill="#d6eaff" opacity="0.69"/><circle cx="812" cy="438" r="0.71" fill="#d6eaff" opacity="0.43"/><circle cx="1277" cy="104" r="0.45" fill="#d6eaff" opacity="0.88"/><circle cx="646" cy="833" r="0.82" fill="#d6eaff" opacity="0.53"/><circle cx="1427" cy="249" r="0.97" fill="#d6eaff" opacity="0.57"/><circle cx="461" cy="865" r="1.14" fill="#d6eaff" opacity="0.38"/><circle cx="873" cy="560" r="1.18" fill="#d6eaff" opacity="0.37"/><circle cx="214" cy="112" r="0.53" fill="#d6eaff" opacity="0.83"/><circle cx="1095" cy="15" r="1.00" fill="#d6eaff" opacity="0.55"/><circle cx="978" cy="851" r="0.53" fill="#d6eaff" opacity="0.78"/><circle cx="1388" cy="746" r="1.08" fill="#d6eaff" opacity="0.38"/><circle cx="662" cy="884" r="1.19" fill="#d6eaff" opacity="0.78"/><circle cx="1054" cy="254" r="0.84" fill="#d6eaff" opacity="0.93"/><circle cx="993" cy="522" r="1.00" fill="#d6eaff" opacity="0.63"/><circle cx="1117" cy="263" r="0.87" fill="#d6eaff" opacity="0.81"/><circle cx="149" cy="421" r="1.15" fill="#d6eaff" opacity="0.78"/><circle cx="918" cy="701" r="0.81" fill="#d6eaff" opacity="0.60"/><circle cx="1513" cy="113" r="0.55" fill="#d6eaff" opacity="0.61"/><circle cx="782" cy="733" r="0.90" fill="#d6eaff" opacity="0.61"/><circle cx="1118" cy="665" r="1.42" fill="#d6eaff" opacity="0.35"/><circle cx="517" cy="824" r="0.68" fill="#d6eaff" opacity="0.47"/><circle cx="116" cy="775" r="0.48" fill="#d6eaff" opacity="0.82"/><circle cx="623" cy="395" r="1.18" fill="#d6eaff" opacity="0.31"/><circle cx="1486" cy="353" r="0.48" fill="#d6eaff" opacity="0.52"/><circle cx="859" cy="58" r="1.23" fill="#d6eaff" opacity="0.48"/><circle cx="672" cy="596" r="1.42" fill="#d6eaff" opacity="0.73"/><circle cx="594" cy="704" r="1.55" fill="#d6eaff" opacity="0.79"/><circle cx="195" cy="148" r="0.42" fill="#d6eaff" opacity="0.35"/><circle cx="12" cy="87" r="1.52" fill="#d6eaff" opacity="0.74"/><circle cx="1143" cy="255" r="1.16" fill="#d6eaff" opacity="0.31"/><circle cx="1581" cy="219" r="1.32" fill="#d6eaff" opacity="0.80"/><circle cx="1258" cy="723" r="0.89" fill="#d6eaff" opacity="0.47"/><circle cx="1451" cy="587" r="0.49" fill="#d6eaff" opacity="0.49"/><circle cx="1413" cy="42" r="0.94" fill="#d6eaff" opacity="0.87"/><circle cx="1270" cy="843" r="1.14" fill="#d6eaff" opacity="0.44"/><circle cx="1281" cy="63" r="0.92" fill="#d6eaff" opacity="0.76"/><circle cx="1177" cy="886" r="0.74" fill="#d6eaff" opacity="0.54"/><circle cx="390" cy="806" r="0.70" fill="#d6eaff" opacity="0.82"/><circle cx="1480" cy="75" r="1.57" fill="#d6eaff" opacity="0.36"/><circle cx="875" cy="371" r="0.52" fill="#d6eaff" opacity="0.39"/><circle cx="1169" cy="481" r="0.91" fill="#d6eaff" opacity="0.70"/><circle cx="1243" cy="687" r="1.55" fill="#d6eaff" opacity="0.47"/><circle cx="891" cy="230" r="0.43" fill="#d6eaff" opacity="0.77"/><circle cx="1458" cy="588" r="0.57" fill="#d6eaff" opacity="0.41"/><circle cx="1043" cy="320" r="0.99" fill="#d6eaff" opacity="0.72"/><circle cx="1012" cy="770" r="1.56" fill="#d6eaff" opacity="0.31"/><circle cx="669" cy="291" r="0.58" fill="#d6eaff" opacity="0.55"/><circle cx="541" cy="116" r="0.97" fill="#d6eaff" opacity="0.88"/><circle cx="626" cy="313" r="1.25" fill="#d6eaff" opacity="0.35"/><circle cx="1383" cy="680" r="1.22" fill="#d6eaff" opacity="0.55"/><circle cx="130" cy="445" r="1.51" fill="#d6eaff" opacity="0.44"/><circle cx="1147" cy="764" r="1.32" fill="#d6eaff" opacity="0.73"/><circle cx="1510" cy="789" r="1.23" fill="#d6eaff" opacity="0.54"/><circle cx="1029" cy="873" r="1.48" fill="#d6eaff" opacity="0.51"/><circle cx="452" cy="275" r="0.70" fill="#d6eaff" opacity="0.31"/><circle cx="107" cy="842" r="1.11" fill="#d6eaff" opacity="0.79"/><circle cx="1452" cy="505" r="0.55" fill="#d6eaff" opacity="0.43"/><circle cx="576" cy="636" r="0.79" fill="#d6eaff" opacity="0.87"/><circle cx="699" cy="417" r="0.73" fill="#d6eaff" opacity="0.79"/><circle cx="1530" cy="414" r="1.00" fill="#d6eaff" opacity="0.46"/><circle cx="626" cy="448" r="0.79" fill="#d6eaff" opacity="0.56"/><circle cx="858" cy="395" r="0.63" fill="#d6eaff" opacity="0.42"/><circle cx="1252" cy="78" r="0.97" fill="#d6eaff" opacity="0.67"/><circle cx="293" cy="743" r="0.62" fill="#d6eaff" opacity="0.79"/><circle cx="838" cy="254" r="0.85" fill="#d6eaff" opacity="0.59"/><circle cx="522" cy="748" r="0.47" fill="#d6eaff" opacity="0.43"/><circle cx="846" cy="847" r="0.95" fill="#d6eaff" opacity="0.68"/><circle cx="1373" cy="640" r="0.99" fill="#d6eaff" opacity="0.77"/><circle cx="1393" cy="674" r="0.57" fill="#d6eaff" opacity="0.70"/><circle cx="1448" cy="158" r="0.71" fill="#d6eaff" opacity="0.88"/><circle cx="156" cy="303" r="1.14" fill="#d6eaff" opacity="0.82"/><circle cx="1238" cy="326" r="1.35" fill="#d6eaff" opacity="0.79"/><circle cx="1112" cy="141" r="0.71" fill="#d6eaff" opacity="0.34"/><circle cx="1060" cy="540" r="1.42" fill="#d6eaff" opacity="0.52"/><circle cx="945" cy="307" r="0.64" fill="#d6eaff" opacity="0.75"/><circle cx="447" cy="259" r="1.19" fill="#d6eaff" opacity="0.94"/><circle cx="1495" cy="5" r="0.90" fill="#d6eaff" opacity="0.72"/><circle cx="1462" cy="574" r="0.64" fill="#d6eaff" opacity="0.42"/><circle cx="247" cy="342" r="1.39" fill="#d6eaff" opacity="0.82"/><circle cx="571" cy="450" r="1.22" fill="#d6eaff" opacity="0.84"/><circle cx="1440" cy="190" r="1.47" fill="#d6eaff" opacity="0.34"/><circle cx="898" cy="674" r="0.89" fill="#d6eaff" opacity="0.32"/><circle cx="1484" cy="280" r="1.21" fill="#d6eaff" opacity="0.34"/><circle cx="957" cy="427" r="1.31" fill="#d6eaff" opacity="0.56"/><circle cx="1412" cy="599" r="1.24" fill="#d6eaff" opacity="0.83"/><circle cx="347" cy="546" r="0.50" fill="#d6eaff" opacity="0.42"/><circle cx="1585" cy="561" r="1.39" fill="#d6eaff" opacity="0.92"/><circle cx="798" cy="410" r="1.22" fill="#d6eaff" opacity="0.58"/><circle cx="1086" cy="641" r="0.66" fill="#d6eaff" opacity="0.58"/><circle cx="400" cy="881" r="1.24" fill="#d6eaff" opacity="0.80"/><circle cx="706" cy="792" r="1.39" fill="#d6eaff" opacity="0.41"/><circle cx="331" cy="503" r="1.36" fill="#d6eaff" opacity="0.41"/><circle cx="757" cy="675" r="1.47" fill="#d6eaff" opacity="0.54"/><circle cx="1218" cy="313" r="0.74" fill="#d6eaff" opacity="0.63"/><circle cx="83" cy="563" r="1.06" fill="#d6eaff" opacity="0.89"/><circle cx="1179" cy="395" r="1.43" fill="#d6eaff" opacity="0.71"/><circle cx="569" cy="488" r="0.91" fill="#d6eaff" opacity="0.71"/><circle cx="1558" cy="31" r="0.58" fill="#d6eaff" opacity="0.46"/><circle cx="958" cy="873" r="1.55" fill="#d6eaff" opacity="0.50"/><circle cx="1202" cy="358" r="0.44" fill="#d6eaff" opacity="0.76"/><circle cx="723" cy="702" r="0.65" fill="#d6eaff" opacity="0.34"/><circle cx="1130" cy="222" r="0.61" fill="#d6eaff" opacity="0.58"/><circle cx="1098" cy="378" r="0.53" fill="#d6eaff" opacity="0.74"/><circle cx="401" cy="101" r="0.86" fill="#d6eaff" opacity="0.82"/><circle cx="1167" cy="493" r="0.56" fill="#d6eaff" opacity="0.58"/><circle cx="290" cy="402" r="1.41" fill="#d6eaff" opacity="0.49"/><circle cx="964" cy="347" r="1.42" fill="#d6eaff" opacity="0.85"/><circle cx="781" cy="162" r="0.67" fill="#d6eaff" opacity="0.78"/><circle cx="905" cy="129" r="0.53" fill="#d6eaff" opacity="0.70"/><circle cx="1540" cy="641" r="0.88" fill="#d6eaff" opacity="0.80"/><circle cx="1180" cy="286" r="0.41" fill="#d6eaff" opacity="0.85"/><circle cx="1095" cy="304" r="0.49" fill="#d6eaff" opacity="0.32"/><circle cx="1149" cy="313" r="0.94" fill="#d6eaff" opacity="0.49"/><circle cx="764" cy="769" r="1.20" fill="#d6eaff" opacity="0.64"/><circle cx="72" cy="313" r="1.08" fill="#d6eaff" opacity="0.78"/><circle cx="843" cy="347" r="1.24" fill="#d6eaff" opacity="0.42"/><circle cx="340" cy="63" r="1.08" fill="#d6eaff" opacity="0.77"/><circle cx="460" cy="443" r="1.17" fill="#d6eaff" opacity="0.53"/><circle cx="242" cy="600" r="0.98" fill="#d6eaff" opacity="0.53"/><circle cx="444" cy="733" r="1.45" fill="#d6eaff" opacity="0.33"/><circle cx="1057" cy="73" r="1.28" fill="#d6eaff" opacity="0.84"/><circle cx="513" cy="530" r="1.06" fill="#d6eaff" opacity="0.67"/><circle cx="981" cy="110" r="1.00" fill="#d6eaff" opacity="0.32"/><circle cx="1282" cy="480" r="1.10" fill="#d6eaff" opacity="0.88"/><circle cx="1225" cy="150" r="0.46" fill="#d6eaff" opacity="0.49"/><circle cx="46" cy="402" r="0.48" fill="#d6eaff" opacity="0.61"/><circle cx="920" cy="317" r="1.10" fill="#d6eaff" opacity="0.77"/><circle cx="1282" cy="167" r="0.91" fill="#d6eaff" opacity="0.36"/><circle cx="1366" cy="711" r="0.72" fill="#d6eaff" opacity="0.52"/><circle cx="1158" cy="575" r="1.13" fill="#d6eaff" opacity="0.50"/><circle cx="541" cy="205" r="0.71" fill="#d6eaff" opacity="0.77"/><circle cx="817" cy="369" r="0.45" fill="#d6eaff" opacity="0.86"/><circle cx="1255" cy="680" r="1.16" fill="#d6eaff" opacity="0.72"/><circle cx="239" cy="168" r="1.26" fill="#d6eaff" opacity="0.73"/><circle cx="856" cy="148" r="0.87" fill="#d6eaff" opacity="0.73"/><circle cx="1534" cy="787" r="0.54" fill="#d6eaff" opacity="0.89"/><circle cx="753" cy="791" r="0.76" fill="#d6eaff" opacity="0.52"/><circle cx="150" cy="250" r="300" fill="url(#halo)"/><circle cx="150" cy="250" r="230" fill="url(#planet)"/><g transform="translate(-90 330) rotate(-8) scale(1.15)"><polygon points="0,90 470,40 520,58 40,150" fill="url(#hull)"/><polygon points="40,150 520,58 500,72 60,168" fill="#0b121b"/><polygon points="330,30 400,18 470,40 360,52" fill="#3d4f63"/><rect x="388" y="2" width="56" height="20" fill="#4a5f77"/><rect x="402" y="-8" width="10" height="12" fill="#6a8199"/><rect x="424" y="-8" width="10" height="12" fill="#6a8199"/><g stroke="#86a2be" stroke-opacity="0.4" stroke-width="1"><line x1="40" y1="105" x2="460" y2="58"/><line x1="70" y1="124" x2="480" y2="70"/><line x1="110" y1="96" x2="340" y2="60"/></g><g fill="#9ee0ff" opacity="0.75"><rect x="120" y="112" width="3" height="2"/><rect x="180" y="104" width="3" height="2"/><rect x="250" y="92" width="3" height="2"/><rect x="320" y="84" width="3" height="2"/></g></g><g fill="#b4c8dc" opacity="0.85"><path d="M420 210l14 -6 14 6 -14 6z"/><path d="M520 300l10 -4 10 4 -10 4z"/></g></svg>